<svg xmlns="http://www.w3.org/2000/svg" width="{{totalWidth}}" height="20">
    {% if badgeStyle == 'rounded' %}
    <mask id="roundedCorners">
        <rect width="{{totalWidth}}" height="20" rx="3" fill="#fff"/>
    </mask>
    <g mask="url(#roundedCorners)">
    {% else %}
    <g>
    {% endif %}
        <path fill="#{{leftColor}}" d="M0 0h30v20H0z"/>
        <path fill="#{{rightColor}}" d="M30 0h{{width}}v20H30z"/>
    </g>

    <path fill="#{{rightColor}}" transform="scale(0.075) translate(80,30)" d="m113.1 57c-27.558822-1.006639-51.359787 27.127002-46.13907 54.15424 3.495512 22.78558 25.646695 40.94076 48.7551 39.35671 3.81748.19621 10.71791-.67666 3.11786-.32451-1.00808 7.38918 6.63353 20.90624-7.57712 16.9906-32.58133-.53846-61.80659-29.69263-61.479692-62.47853-.595844-29.914349 22.268419-58.956623 52.261992-63.352208 7.7716-3.912006 17.93816.09358 12.25215 9.495295-.32543 2.065571-.69463 4.126212-1.19122 6.158403zm19.1-13.8c30.78608 8.89014 50.62639 43.771942 43.05302 74.83356-4.12648 19.23516-18.07764 36.11802-36.2939 43.60854-7.76755-8.09651-4.62002-20.74167 6.11429-23.601 16.73613-14.95778 19.82888-42.809478 6.43613-60.90498-3.68689-10.324587-18.84307-10.609847-21.17611-21.609765.30291-4.138415 1.84533-8.106871 1.86657-12.326355zm-98.5 67.3c2.449612 40.34867 40.202512 74.75015 80.65901 73.2317 22.1544.44664 46.15092-7.21598 59.47591-25.88729 6.49863-6.86049 9.2757-24.59451 21.88831-16.04227 11.30495 4.82985-4.45597 16.95967-7.67155 23.48873-24.15868 29.36955-67.49798 44.18231-103.45903 28.89817-33.602572-13.21262-61.905365-43.2672-67.558591-79.61161.07631-7.34399 8.743834-3.0489 13.448926-4.07743zm-16.6-16.7c3.788542-47.632604 47.933155-87.9507882 95.78745-87.0872423 46.70689-.1033989 90.1851 37.4844373 96.34617 83.8710893 1.77846 13.416593 1.14499 27.044913.44017 40.505903-1.78314-6.43277-23.32419-3.24389-17.00455-15.7789 6.21527-38.377216-19.75992-79.124724-57.60229-88.825888-34.51563-9.899251-76.055152 5.329188-92.155306 38.350581-6.530769 8.005047-5.27318 23.472001-11.100566 28.964457-4.903693 0-9.807385 0-14.711078 0zm191.5-7.2c-16.3 4.4-32.6 8.8-48.9 13.2-2.58752-7.392987-6.04935-20.748626 6.58102-19.031213 12.70632-3.422929 25.41265-6.845858 38.11898-10.268787 1.98106 5.191082 3.4567 10.588644 4.2 16.1zm-62.5 23.2c-7.14808 7.32061-11.70122 19.29837-23.40206 20.03638-8.48554 5.91768-18.81625 5.73812-23.747243-4.44671-5.129466-4.6265-12.493452 5.63075-18.592884 7.46502-15.152604 9.08177-30.30521 18.16354-45.457813 27.24531-5.325262-5.1547-12.012099-16.89246-.520534-19.08509 17.906845-10.7383 35.813689-21.47661 53.720534-32.21491-1.866667-4.96667-3.733333-9.933333-5.6-14.9 5.866667-6.033333 11.733333-12.066667 17.6-18.1 7.43333-1.6 14.86667-3.2 22.3-4.8 12.09625 8.411742-2.45932 18.599315-11.42804 21.037993-13.603071 3.675327-4.29897 24.860667 7.69229 20.923487 7.20643-3.6161 16.02774-16.454603 24.98097-9.71323.92684 2.14601 1.30259 4.46526 2.45478 6.55175z" />

    <g fill="#FFFFFF" text-anchor="middle" font-family="DejaVu Sans,Verdana,Geneva,sans-serif" font-size="11">
        <text x="{{offset}}" y="15" fill="#010101" fill-opacity=".3">{{downloads}}</text>
        <text x="{{offset}}" y="14">{{downloads}}</text>
    </g>
</svg>
